<svg id="avasound" xmlns="http://www.w3.org/2000/svg" viewBox="0 0 487.86 65.83"><defs><style>.cls-1{fill:none;stroke:#000;stroke-linecap:round;stroke-linejoin:round;stroke-width:2px;}</style></defs><g id="av"><g id="a"><line class="cls-1" x1="30.97" y1="39.67" x2="30.97" y2="31.59"/><line class="cls-1" x1="33.48" y1="39.67" x2="33.48" y2="34.25"/><line class="cls-1" x1="35.74" y1="39.67" x2="35.74" y2="36.51"/><line class="cls-1" x1="38.08" y1="39.67" x2="38.08" y2="38.09"/><line class="cls-1" x1="28.55" y1="39.67" x2="28.55" y2="34.25"/><line class="cls-1" x1="26.29" y1="39.67" x2="26.29" y2="36.51"/><line class="cls-1" x1="23.95" y1="39.67" x2="23.95" y2="38.09"/></g><path d="M231.63,372.88a5.57,5.57,0,0,0-2.32-2.72,5.22,5.22,0,0,0-2.66-.73,5.42,5.42,0,0,0-5.11,3.82l-2.77,7.27h0l-2,5.35-1.11,2.88a5.16,5.16,0,0,0-.33.8l-1.22,3.21h0l-3.58,9.41-4.81,12.33-.09.24c-.15.4-.29.8-.44,1.19s-.34.88-.54,1.31a9.23,9.23,0,0,1-.69,1.23,4.68,4.68,0,0,1-.85,1,3.08,3.08,0,0,1-.5.33,2.49,2.49,0,0,1-.83.25,6.05,6.05,0,0,1-1,.06,2.83,2.83,0,0,1-2.32-1,6.41,6.41,0,0,1-.74-1.05c-.22-.39-.41-.8-.59-1.21s-.33-.81-.48-1.22l-.21-.56-.09-.27s-.08-.24-.09-.24-4.82-12.33-4.82-12.33h0L186.57,390a87.72,87.72,0,0,0-5.21-11.36,22.16,22.16,0,0,0-5.84-7.4,8.69,8.69,0,0,0-10.62,0,22.16,22.16,0,0,0-5.84,7.4,86.34,86.34,0,0,0-5.2,11.36L149,402.3c-.22.57-.43,1.15-.65,1.73l-1.29,3.47c-.17.47-.34.94-.52,1.4l-.09.23-3.63,9.22c-.21.58-.43,1.16-.64,1.73l-1.29,3.47-.07.18-.45,1.23c-.27.7-.56,1.4-.82,2.1a6.34,6.34,0,0,0-.39,2.1,5.7,5.7,0,0,0,.41,2.18,5.62,5.62,0,0,0,2.32,2.72,5.22,5.22,0,0,0,2.66.73,5.44,5.44,0,0,0,5.12-3.82l2.76-7.27h0l2-5.35,1-2.51a5.11,5.11,0,0,0,.4-.93l4.79-12.61L165.46,390l.09-.23c.14-.4.29-.8.44-1.2s.34-.88.54-1.31a9.91,9.91,0,0,1,.69-1.23,4.39,4.39,0,0,1,.85-1,2.43,2.43,0,0,1,1.33-.59,6.05,6.05,0,0,1,1-.06,3.34,3.34,0,0,1,1.42.31,3.18,3.18,0,0,1,.9.74,5.88,5.88,0,0,1,.73,1,11.34,11.34,0,0,1,.6,1.21c.17.4.33.81.48,1.22.07.19.14.38.2.57a2,2,0,0,1,.1.26,1.34,1.34,0,0,0,.09.24l4.82,12.34h0l4.8,12.2a88.46,88.46,0,0,0,5.21,11.37,22.12,22.12,0,0,0,5.84,7.39,8.68,8.68,0,0,0,10.62,0,22.25,22.25,0,0,0,5.84-7.39,87.07,87.07,0,0,0,5.2-11.37l4.85-12.33c.22-.58.43-1.16.65-1.73l1.29-3.47c.12-.34.25-.68.37-1l3.93-10.09c.21-.58.43-1.16.64-1.73l1.29-3.47a1.34,1.34,0,0,0,.07-.18c.15-.41.3-.82.46-1.23.27-.7.55-1.4.81-2.1a6.34,6.34,0,0,0,.39-2.1A5.52,5.52,0,0,0,231.63,372.88Z" transform="translate(-139.17 -369.28)"/></g><path id="n" d="M545.75,371.37a3.86,3.86,0,0,0-2.46-1,4.85,4.85,0,0,0-3.84,1.7,6.89,6.89,0,0,0-1.41,5.21c0,.64.12,1.29.22,1.93.67,4.36.93,8.86,1.37,13.26.55,5.55,1.07,11.06,1.07,16.65,0,2.09.37,6.31-1.45,7.57a2.54,2.54,0,0,1-2.65-.13c-1.93-1-3.2-3-4.58-4.8-7.37-9.72-14.13-20.07-21.72-29.57-1.71-2.15-3.47-4.26-5.28-6.31-2.21-2.49-4.76-5-7.8-5.22s-5.87,2.12-7.49,5.13-2.25,6.61-2.66,10.15c-1.53,13.32-.46,26.93,1.75,40.16.08.51.17,1,.28,1.55v0a12.8,12.8,0,0,0,.48,1.77,7.21,7.21,0,0,0,2.22,4.08,4.37,4.37,0,0,0,3.88.7,5.44,5.44,0,0,0,3-2.48,6.85,6.85,0,0,0,.75-4.23c-.05-.65-.12-1.3-.22-1.94-.67-4.36-.93-8.86-1.37-13.26-.55-5.55-1.07-11.06-1.07-16.65,0-2.09-.37-6.31,1.45-7.57a2.54,2.54,0,0,1,2.65.13c1.93,1,3.2,3,4.58,4.8,7.3,9.63,14.07,20,21.61,29.44,1.75,2.2,3.54,4.35,5.39,6.44,2.21,2.5,4.76,5,7.8,5.22s5.87-2.12,7.49-5.12,2.25-6.62,2.66-10.16c1.53-13.31.46-26.92-1.75-40.16-.08-.51-.17-1-.28-1.54v0a12.8,12.8,0,0,0-.48-1.77A8.16,8.16,0,0,0,545.75,371.37Z" transform="translate(-139.17 -369.28)"/><path id="s" d="M342.78,373.59a6.34,6.34,0,0,0-3.58-2,11.72,11.72,0,0,0-1.57-.43h0c-.46-.09-.91-.16-1.37-.23-11.65-1.79-23.6-2.39-35.22-.34a22,22,0,0,0-8.81,3.09c-2.58,1.78-4.52,4.77-4.26,7.89s2.57,5.64,4.82,7.82q2.78,2.69,5.69,5.2c4.9,4.28,10,8.25,15.18,12.23,0,0,2,1.74,3.29,2.73s2.57,2.13,3.61,2.89,3.33,2.7,4.28,3.55a10.92,10.92,0,0,1,3,3.52,2.53,2.53,0,0,1,.07,2c-.95,2.11-4.36,2.06-6.24,2.19-1.43.09-4.76-.24-6.33-.28s-5.32-.48-6.37-.67-6.55-1-7.17-1.13c-3.07-.47-6.61-.64-8.13,2.59a6.22,6.22,0,0,0-.52,3.58c.44,2.9,2.92,3.88,5.46,4.57,1.76.47,4.47,1,6.23,1.32a77.68,77.68,0,0,0,19,.81,28,28,0,0,0,5.6-1c5.39-1.6,11.13-5.72,11-11.92-.1-3.61-2.15-6.38-4.65-8.78-4-3.88-8.15-7.71-12.47-11.29s-8.85-7-13.25-10.49l-2.23-1.82c-1.63-1.34-3.38-2.58-4.35-4.52a3,3,0,0,1-.19-2.72c1.05-1.92,4.75-1.69,6.58-1.77a127.32,127.32,0,0,1,14.62.5c3.86.29,7.82.4,11.65.93a16.44,16.44,0,0,0,1.71.15,5.6,5.6,0,0,0,4-1.12,5.74,5.74,0,0,0,1.87-3.49A4.8,4.8,0,0,0,342.78,373.59Z" transform="translate(-139.17 -369.28)"/><path id="d" d="M627,401.26c0-.22,0-.45,0-.67h-.08c-1.2-15.58-14.55-26.72-29.65-29.78a94.08,94.08,0,0,0-19.77-1.41c-3.67,0-7.33.14-11,.32a10.44,10.44,0,0,0-4.64.95c-3.44,1.89-2.58,5.82-2.5,9,.1,3.61.12,7.23.12,10.84v23.14c0,3.61,0,7.23-.12,10.84-.08,3.19-.94,7.11,2.5,9a10.44,10.44,0,0,0,4.64.95c3.67.18,7.33.28,11,.32a94.75,94.75,0,0,0,19.77-1.41c15.1-3.06,28.45-14.2,29.65-29.78H627c0-.23,0-.45,0-.67s0-.55,0-.83S627,401.54,627,401.26Zm-11.86,1.3c0,.15,0,.3,0,.45h0c-.77,10.36-9.25,17.77-18.85,19.81a57.48,57.48,0,0,1-12.57.93q-3.5,0-7-.21a6.45,6.45,0,0,1-3-.63c-2.19-1.26-1.64-3.87-1.59-6,.07-2.4.08-4.8.08-7.2V394.32c0-2.41,0-4.81-.08-7.21,0-2.13-.6-4.74,1.59-6a6.45,6.45,0,0,1,3-.63q3.49-.18,7-.21a57.48,57.48,0,0,1,12.57.94c9.6,2,18.08,9.44,18.85,19.81h0c0,.15,0,.3,0,.45s0,.37,0,.55S615.17,402.38,615.17,402.56Z" transform="translate(-139.17 -369.28)"/><path d="M474.94,369.82a5.33,5.33,0,0,0-2.74-.33,5.66,5.66,0,0,0-4.38,3.51,6.2,6.2,0,0,0-.44,2.09c0,.75,0,1.51,0,2.26,0,.43,0,.87,0,1.31v.18l-.12,3.71-.06,1.84L467,394.3c-.06,4.11-.3,8.21-.35,12.32a19.77,19.77,0,0,1-3.23,11.13,15.69,15.69,0,0,1-11.09,6.74,14.92,14.92,0,0,1-12-4.65,16.25,16.25,0,0,1-1.71-2.09,17,17,0,0,1-2.92-7.26,66.38,66.38,0,0,1-.44-8.58c0-2.48-.16-5-.22-7.44-.06-2.63-.07-5.26-.11-7.9l0-2.18c0-.61,0-1.23-.05-1.84l-.12-3.71c0-.06,0-.12,0-.18,0-.44,0-.88,0-1.31,0-.75,0-1.51,0-2.26a6.44,6.44,0,0,0-.43-2.09,5.66,5.66,0,0,0-4.38-3.51,5.33,5.33,0,0,0-2.74.33,5.44,5.44,0,0,0-3.29,5.48l.19,7.77.14,5.72,0,2.7a6.68,6.68,0,0,0,0,1l.13,6.25c.06,2.78.08,5.55.18,8.33a32.26,32.26,0,0,0,3.41,12.44,29,29,0,0,0,8.38,10.39,24.42,24.42,0,0,0,27.55,1.39c.69-.44,1.36-.9,2-1.39a28.94,28.94,0,0,0,8.37-10.39,32.09,32.09,0,0,0,3.41-12.44c.11-2.78.12-5.55.18-8.33l.13-6.25a4.78,4.78,0,0,0,0-1l0-2.7.14-5.72.19-7.77A5.45,5.45,0,0,0,474.94,369.82Z" transform="translate(-139.17 -369.28)"/><path id="o" d="M380.83,369.66c-19.43,0-35.18,14.65-35.18,32.72s15.75,32.73,35.18,32.73S416,420.46,416,402.38,400.26,369.66,380.83,369.66Zm-.17,55.3c-13.41,0-24.27-10.11-24.27-22.58s10.87-22.58,24.27-22.58,24.27,10.11,24.27,22.58S394.07,425,380.66,425Z" transform="translate(-139.17 -369.28)"/><path d="M285.84,427.14c-.26-.71-.55-1.41-.82-2.11l-.45-1.22-.07-.18-1.29-3.47c-.21-.58-.43-1.15-.64-1.73l-4-10.19h0l-1.17-3-.34-.87-.13-.34c-.21-.58-.43-1.15-.64-1.73L271.42,390a87,87,0,0,0-5.21-11.36,22.26,22.26,0,0,0-5.83-7.4,8.94,8.94,0,0,0-5.18-1.8h0a9,9,0,0,0-5.21,1.8,22.16,22.16,0,0,0-5.84,7.4A88.33,88.33,0,0,0,238.9,390l-4.85,12.34c-.21.58-.43,1.15-.64,1.73l-.13.34-.34.87-1.78,4.51-3.4,8.66c-.22.58-.43,1.15-.64,1.73l-1.29,3.47a1.34,1.34,0,0,0-.07.18c-.15.41-.3.82-.46,1.22-.27.7-.55,1.4-.81,2.11a6.29,6.29,0,0,0-.39,2.09,5.64,5.64,0,0,0,2.73,4.91,5.22,5.22,0,0,0,2.66.73,5.42,5.42,0,0,0,5.11-3.82l.09-.23a6.44,6.44,0,0,0,.24-.61l4.8-12.62,2.91-7.45h25.05l2.91,7.45,4.79,12.62a4.8,4.8,0,0,0,.27.66l.06.18a5.44,5.44,0,0,0,5.12,3.82,5.22,5.22,0,0,0,2.66-.73,5.62,5.62,0,0,0,2.32-2.72,5.75,5.75,0,0,0,.41-2.19A6.29,6.29,0,0,0,285.84,427.14Zm-39.11-27.48,3.78-9.68a1.55,1.55,0,0,0,.08-.23l.44-1.2c.17-.44.35-.88.55-1.3a8.6,8.6,0,0,1,.68-1.23,4.52,4.52,0,0,1,.86-1,2.93,2.93,0,0,1,.5-.34,2.64,2.64,0,0,1,.83-.24c.22,0,.59,0,.84,0a5.44,5.44,0,0,1,.58,0,2.64,2.64,0,0,1,.83.24,2.93,2.93,0,0,1,.5.34,4.27,4.27,0,0,1,.86,1,8.6,8.6,0,0,1,.68,1.23c.2.42.38.86.55,1.3l.44,1.2c0,.08.06.16.08.23l3.78,9.68Z" transform="translate(-139.17 -369.28)"/></svg>